<?xml version="1.0" encoding="UTF-8" standalone="no"?>
<svg
   height="960"
   viewBox="0 0 960 960"
   width="960"
   version="1.1"
   id="svg14"
   sodipodi:docname="icon.svg"
   inkscape:version="1.1.1 (3bf5ae0d25, 2021-09-20)"
   xmlns:inkscape="http://www.inkscape.org/namespaces/inkscape"
   xmlns:sodipodi="http://sodipodi.sourceforge.net/DTD/sodipodi-0.dtd"
   xmlns="http://www.w3.org/2000/svg"
   xmlns:svg="http://www.w3.org/2000/svg">
  <defs
     id="defs18" />
  <sodipodi:namedview
     id="namedview16"
     pagecolor="#505050"
     bordercolor="#ffffff"
     borderopacity="1"
     inkscape:pageshadow="0"
     inkscape:pageopacity="0"
     inkscape:pagecheckerboard="1"
     showgrid="false"
     inkscape:zoom="0.72375466"
     inkscape:cx="757.8535"
     inkscape:cy="496.02444"
     inkscape:window-width="1440"
     inkscape:window-height="890"
     inkscape:window-x="-6"
     inkscape:window-y="-6"
     inkscape:window-maximized="1"
     inkscape:current-layer="g12" />
  <g
     fill="#000"
     fill-rule="evenodd"
     id="g12">
    <path
       d="M 313.16776,7.4740963 837.59604,65.961126 c 27.54844,3.072349 34.27582,26.006668 34.27582,53.725904 v 712.84576 c 0,27.95869 -7.11648,50.64186 -34.89791,53.78519 l -520.7955,58.92533 c -10.34806,1.17083 -22.50037,-16.06983 -37.30381,-20.15724 l -98.30431,-27.14302 c -23.56872,-6.50761 -27.54552,-9.85337 -27.54552,-34.304 V 87.476536 c 0,-25.072151 1.25945,-28.657364 25.5901,-34.709818 L 282.17006,27.006504 c 9.83402,-2.446297 17.80012,-21.0042727 30.9977,-19.5324077 z m -12.01035,37.0333667 -0.3156,858.482807 0.0531,0.0147 c 1.7871,12.41215 13.12024,17.69882 22.43702,16.68778 l 510.07774,-55.35274 c 7.20624,-0.78201 12.7525,-24.55865 12.7525,-31.8072 V 119.68703 c 0,-7.18647 -1.87978,-30.965925 -9.01864,-31.791829 L 323.87956,28.515028 c -8.78511,-1.01636 -14.11165,13.975592 -22.72218,15.992435 z m -20.0026,4.691813 -89.83152,21.07472 c -6.32838,1.484607 -10.80248,7.129775 -10.80248,13.629962 V 860.06647 c 0,6.33905 4.25936,11.88711 10.38322,13.52475 l 89.93978,24.05105 z m 235.89209,76.842924 0.89314,10.3963 c 0.43637,5.0794 -6.88295,6.17994 -12.02278,5.65952 l -97.70109,-9.89236 c -5.13981,-0.52041 -16.04192,0.74176 -16.04192,-4.40428 v -10.2448 c 0,-5.14604 21.50002,-2.21641 16.48849,-3.46575 m 360.24161,33.55298 0.89314,10.3963 c 0.43637,5.0794 -6.88296,6.17993 -12.02278,5.65952 l -97.70109,-9.89236 c -5.13982,-0.52041 -16.04192,0.74176 -16.04192,-4.40428 v -10.2448 c 0,-5.14604 21.50002,-2.21641 16.48849,-3.46575 m -31.83953,-13.94982 0.44656,36.74407 c 0.062,5.09773 -6.88295,6.17994 -12.02278,5.65952 l -70.46018,-7.21293 c -5.13923,-0.5261 -11.5762,0.74176 -11.5762,-4.40428 v -35.69942 c 0,-5.14604 17.0343,-2.21641 12.02277,-3.46575 m 309.92417,123.92451 0.89314,10.3963 c 0.43637,5.0794 -6.88068,6.15701 -12.02278,5.65952 L 310.15511,201.51284 c -5.14207,-0.49749 -16.04192,0.74176 -16.04192,-4.40428 v -10.2448 c 0,-5.14604 21.50002,-2.21641 16.48849,-3.46575 m 383.90391,535.08006 0.89314,10.3963 c 0.43637,5.0794 -6.86097,5.44867 -12.02278,5.65952 l -138.08676,5.64058 c -5.16178,0.21085 -16.04192,0.74176 -16.04192,-4.40428 v -10.2448 c 0,-5.14604 21.50002,-2.21641 16.48849,-3.46575 m 118.27711,27.06798 -3.43668,14.99794 c 0.062,5.09773 -6.88295,6.17994 -12.02278,5.65952 l -68.90688,7.54337 c -5.13541,0.56219 -11.98713,0.72533 -11.5762,-4.40428 l 1.55329,-19.38982 c 0.41093,-5.12961 17.0343,-2.21641 12.02277,-3.46575 m -380.70838,147.36958 2.01301,12.72723 c 0.062,5.09773 -4.1581,11.1755 -9.29793,10.65508 l -8.50609,1.63953 c -5.07272,0.97775 -7.89985,0.72533 -7.48893,-4.40428 l 1.55329,-19.38982 c 0.41093,-5.12961 12.94703,-2.21641 7.9355,-3.46575 m 167.74506,37.66103 2.01301,12.72723 c 0.062,5.09773 -4.1581,11.1755 -9.29793,10.65508 l -8.50609,1.63953 c -5.07272,0.97776 -7.89986,0.72533 -7.48893,-4.40428 l 1.55329,-19.38982 c 0.41092,-5.12961 12.94703,-2.21641 7.9355,-3.46575 m 493.8185,-49.53414 2.01301,12.7273 c 0.062,5.0977 -4.1581,11.1755 -9.29793,10.6551 l -8.50609,1.6395 c -5.07272,0.97774 -7.89986,0.7253 -7.48893,-4.4043 l 1.55329,-19.3898 c 0.41092,-5.1296 12.94703,-2.2164 7.9355,-3.4658"
       fill-rule="nonzero"
       id="path2"
       sodipodi:nodetypes="ssssssssssssscccsssssscccsscccccsssssccsssssccscsssccsssssccsssssccccsssccccsssccccsssccccsssc" />
  </g>
</svg>
