<?xml version="1.0" encoding="UTF-8" standalone="no"?>
<!-- Created with Inkscape (http://www.inkscape.org/) -->

<svg
   width="200mm"
   height="200mm"
   viewBox="0 0 200 200"
   version="1.1"
   id="svg14"
   inkscape:version="1.1.1 (3bf5ae0d25, 2021-09-20)"
   sodipodi:docname="icon.svg"
   xmlns:inkscape="http://www.inkscape.org/namespaces/inkscape"
   xmlns:sodipodi="http://sodipodi.sourceforge.net/DTD/sodipodi-0.dtd"
   xmlns="http://www.w3.org/2000/svg"
   xmlns:svg="http://www.w3.org/2000/svg">
  <sodipodi:namedview
     id="namedview16"
     pagecolor="#505050"
     bordercolor="#ffffff"
     borderopacity="1"
     inkscape:pageshadow="0"
     inkscape:pageopacity="0"
     inkscape:pagecheckerboard="1"
     inkscape:document-units="mm"
     showgrid="false"
     width="200mm"
     inkscape:zoom="0.58974467"
     inkscape:cx="397.62971"
     inkscape:cy="508.69472"
     inkscape:window-width="1440"
     inkscape:window-height="890"
     inkscape:window-x="-6"
     inkscape:window-y="-6"
     inkscape:window-maximized="1"
     inkscape:current-layer="layer1" />
  <defs
     id="defs11" />
  <g
     inkscape:label="Laag 1"
     inkscape:groupmode="layer"
     id="layer1">
    <g
       id="g1998"
       transform="translate(-4.4864048,-42.620846)">
      <path
         style="fill:#d0d0d0;fill-opacity:1;stroke-width:0.462485"
         d="m 43.657465,247.19488 c 0.333853,-0.1336 0.732746,-0.11717 0.88643,0.0365 0.153679,0.15368 -0.119478,0.26299 -0.607011,0.2429 -0.538772,-0.0222 -0.648357,-0.13178 -0.279419,-0.27941 z m 117.933605,0 c 0.33385,-0.1336 0.73275,-0.11717 0.88643,0.0365 0.15368,0.15368 -0.11948,0.26299 -0.60701,0.2429 -0.53878,-0.0222 -0.64836,-0.13178 -0.27942,-0.27941 z M 16.457582,234.79248 c -1.123388,-1.14465 -1.938465,-2.08118 -1.811282,-2.08118 0.127183,0 1.150378,0.93653 2.273767,2.08118 1.123389,1.14465 1.938466,2.08118 1.811283,2.08118 -0.127184,0 -1.150379,-0.93653 -2.273768,-2.08118 z m 172.487468,0.11562 c 1.91652,-2.04196 2.33175,-2.40912 2.33175,-2.06185 0,0.0742 -0.98856,1.06278 -2.1968,2.1968 l -2.1968,2.06185 z M 4.4694918,208.39231 c 0.02219,-0.53877 0.1317808,-0.64835 0.279418,-0.27942 0.1335984,0.33386 0.1171677,0.73276 -0.036513,0.88643 -0.1536799,0.15368 -0.2629877,-0.11947 -0.2429062,-0.60701 z M 164.67301,141.13933 c 0,-20.22214 0.0569,-28.49483 0.12639,-18.38376 0.0695,10.11107 0.0695,26.65646 0,36.76753 -0.0695,10.11107 -0.12639,1.83837 -0.12639,-18.38377 z m -89.729366,-4.16236 c 0,-11.57368 0.06004,-16.30837 0.133432,-10.52153 0.07339,5.78684 0.07339,15.25622 0,21.04306 -0.07339,5.78684 -0.133432,1.05215 -0.133432,-10.52153 z M 4.506004,89.803534 c 0,-0.635917 0.1049716,-0.896064 0.2332708,-0.578106 0.1282989,0.317958 0.1282989,0.838253 0,1.156212 C 4.6109756,90.699598 4.506004,90.43945 4.506004,89.803534 Z m 196.555996,0 c 0,-0.635917 0.10498,-0.896064 0.23328,-0.578106 0.12829,0.317958 0.12829,0.838253 0,1.156212 -0.1283,0.317958 -0.23328,0.05781 -0.23328,-0.578106 z M 40.420072,51.101376 c 0.333856,-0.133598 0.732749,-0.117167 0.886429,0.03651 0.153679,0.15368 -0.119476,0.262987 -0.607011,0.242906 -0.538769,-0.02219 -0.648358,-0.131781 -0.279418,-0.279418 z m 124.408388,0 c 0.33385,-0.133598 0.73275,-0.117167 0.88643,0.03651 0.15368,0.15368 -0.11948,0.262987 -0.60701,0.242906 -0.53877,-0.02219 -0.64836,-0.131781 -0.27942,-0.279418 z"
         id="path2014" />
      <path
         style="fill:#b9b9b9;fill-opacity:1;stroke-width:0.462485"
         d="m 4.0777931,204.03725 c 0,-0.89029 0.095177,-1.25449 0.2115049,-0.80935 0.1163274,0.44514 0.1163274,1.17355 0,1.6187 -0.1163278,0.44514 -0.2115049,0.0809 -0.2115049,-0.80935 z M 201.54163,203.80601 c 0.009,-0.7631 0.11308,-1.01929 0.23033,-0.56931 0.11726,0.44998 0.10955,1.07434 -0.0172,1.38745 -0.12669,0.31312 -0.22263,-0.055 -0.2132,-0.81814 z m -87.03729,-77.69743 c 0.59742,-0.63592 1.19027,-1.15621 1.31745,-1.15621 0.12718,0 -0.25755,0.52029 -0.85496,1.15621 -0.59742,0.63592 -1.19027,1.15621 -1.31745,1.15621 -0.12719,0 0.25755,-0.52029 0.85496,-1.15621 z M 57.559727,107.49357 c -0.575271,-0.73353 -0.558913,-0.74988 0.174616,-0.17461 0.445141,0.3491 0.809348,0.71331 0.809348,0.80934 0,0.38065 -0.379788,0.13566 -0.983964,-0.63473 z M 164.6216,100.20944 c 0.001,-2.543667 0.0789,-3.525253 0.17259,-2.181301 0.0937,1.343953 0.0927,3.425131 -0.002,4.624851 -0.0948,1.19971 -0.17148,0.10011 -0.17028,-2.44355 z M 4.0777931,94.428381 c 0,-0.890283 0.095177,-1.25449 0.2115049,-0.809349 0.1163274,0.445142 0.1163274,1.173555 0,1.618697 -0.1163278,0.445141 -0.2115049,0.08093 -0.2115049,-0.809348 z m 197.4809669,0 c 0,-0.890283 0.0952,-1.25449 0.21151,-0.809349 0.11633,0.445142 0.11633,1.173555 0,1.618697 -0.11633,0.445141 -0.21151,0.08093 -0.21151,-0.809348 z M 15.301371,64.366877 c 0.460397,-0.508733 0.941145,-0.924969 1.068328,-0.924969 0.127183,0 -0.145447,0.416236 -0.605844,0.924969 -0.460397,0.508733 -0.941144,0.924969 -1.068328,0.924969 -0.127183,0 0.145447,-0.416236 0.605844,-0.924969 z m 173.414379,-1.503075 -2.29504,-2.428045 2.42805,2.295038 c 1.33542,1.262271 2.42804,2.354891 2.42804,2.428044 0,0.345103 -0.42846,-0.03885 -2.56105,-2.295037 z M 17.845037,61.823211 C 18.442449,61.187295 19.0353,60.667 19.162484,60.667 c 0.127183,0 -0.25755,0.520295 -0.854963,1.156211 -0.597412,0.635917 -1.190263,1.156212 -1.317447,1.156212 -0.127183,0 0.25755,-0.520295 0.854963,-1.156212 z M 43.19498,50.638892 c 0.333854,-0.133599 0.732747,-0.117168 0.88643,0.03651 0.153679,0.15368 -0.119478,0.262988 -0.607011,0.242906 -0.538771,-0.02219 -0.648357,-0.131781 -0.279419,-0.279418 z m 118.85857,0 c 0.33385,-0.133599 0.73275,-0.117168 0.88643,0.03651 0.15368,0.15368 -0.11948,0.262988 -0.60701,0.242906 -0.53877,-0.02219 -0.64836,-0.131781 -0.27942,-0.279418 z"
         id="path2012" />
      <path
         style="fill:#a3a3a3;fill-opacity:1;stroke-width:0.462485"
         d="m 47.56848,247.65279 c 0.449984,-0.11725 1.074338,-0.10954 1.387455,0.0172 0.313116,0.12669 -0.05505,0.22263 -0.81815,0.2132 -0.7631,-0.009 -1.019288,-0.11307 -0.569305,-0.23033 z m 109.60888,0 c 0.44998,-0.11725 1.07433,-0.10954 1.38745,0.0172 0.31312,0.12669 -0.055,0.22263 -0.81815,0.2132 -0.7631,-0.009 -1.01929,-0.11307 -0.5693,-0.23033 z M 63.852396,161.48866 c 0,-22.51144 0.05641,-31.72067 0.125366,-20.46495 0.06895,11.25572 0.06895,29.67417 0,40.92989 -0.06895,11.25573 -0.125366,2.0465 -0.125366,-20.46494 z m 94.356754,29.13653 c 0.4604,-0.50873 0.94114,-0.92497 1.06833,-0.92497 0.12718,0 -0.14545,0.41624 -0.60585,0.92497 -0.4604,0.50874 -0.94115,0.92497 -1.06833,0.92497 -0.12718,0 0.14545,-0.41623 0.60585,-0.92497 z m -77.278891,-20.00246 -0.881029,-1.04059 1.040591,0.88103 c 0.977896,0.82795 1.251132,1.20015 0.881029,1.20015 -0.08776,0 -0.556027,-0.46827 -1.040591,-1.04059 z M 47.56848,50.171839 c 0.449984,-0.11726 1.074338,-0.109548 1.387455,0.01714 0.313116,0.126685 -0.05505,0.222625 -0.81815,0.2132 -0.7631,-0.0094 -1.019288,-0.113077 -0.569305,-0.230337 z m 109.60888,0 c 0.44998,-0.11726 1.07433,-0.109548 1.38745,0.01714 0.31312,0.126685 -0.055,0.222625 -0.81815,0.2132 -0.7631,-0.0094 -1.01929,-0.113077 -0.5693,-0.230337 z"
         id="path2010" />
      <path
         style="fill:#8c8c8c;fill-opacity:1;stroke-width:0.462485"
         d="m 108.69035,170.04462 c 3.2e-4,-5.85043 0.0666,-8.18001 0.14729,-5.17685 0.0807,3.00315 0.0804,7.78987 -4.7e-4,10.63714 -0.081,2.84728 -0.14702,0.39015 -0.14669,-5.46029 z m -17.585427,-42.89545 -0.881029,-1.04059 1.04059,0.88103 c 0.977897,0.82795 1.251133,1.20015 0.881029,1.20015 -0.08776,0 -0.556027,-0.46826 -1.04059,-1.04059 z"
         id="path2008" />
      <path
         style="fill:#767676;fill-opacity:1;stroke-width:0.462485"
         d="m 201.0255,209.77977 c 0.0222,-0.53877 0.13178,-0.64836 0.27941,-0.27942 0.1336,0.33385 0.11717,0.73275 -0.0365,0.88643 -0.15368,0.15368 -0.26299,-0.11948 -0.24291,-0.60701 z m -76.80898,-39.67852 c 0,-0.096 0.36421,-0.46024 0.80935,-0.80935 0.73353,-0.57527 0.74988,-0.55891 0.17461,0.17462 -0.60417,0.77038 -0.98396,1.01537 -0.98396,0.63473 z m -15.5274,-20.40595 c 3.5e-4,-5.59607 0.0671,-7.8218 0.14841,-4.94608 0.0813,2.87572 0.081,7.45432 -4.6e-4,10.17466 -0.0816,2.72035 -0.14812,0.36748 -0.14777,-5.22858 z m 22.21461,-13.41206 c 1.1e-4,-11.19213 0.0604,-15.70455 0.13406,-10.0276 0.0736,5.67695 0.0735,14.83414 -1.9e-4,20.34932 -0.0737,5.51519 -0.13397,0.87041 -0.13387,-10.32172 z"
         id="path2006" />
      <path
         style="fill:#606060;fill-opacity:1;stroke-width:0.462485"
         d="m 41.807526,247.19488 c 0.333854,-0.1336 0.732747,-0.11717 0.88643,0.0365 0.153679,0.15368 -0.119478,0.26299 -0.607011,0.2429 -0.53877,-0.0222 -0.648359,-0.13178 -0.279419,-0.27941 z m 121.633474,0 c 0.33386,-0.1336 0.73276,-0.11717 0.88644,0.0365 0.15367,0.15368 -0.11948,0.26299 -0.60702,0.2429 -0.53877,-0.0222 -0.64835,-0.13178 -0.27942,-0.27941 z M 4.0435193,206.34967 c 0,-0.63592 0.1049716,-0.89606 0.2332708,-0.5781 0.1282988,0.31795 0.1282988,0.83825 0,1.15621 -0.1282992,0.31795 -0.2332708,0.0578 -0.2332708,-0.57811 z m 197.4809707,0 c 0,-0.63592 0.10497,-0.89606 0.23327,-0.5781 0.1283,0.31795 0.1283,0.83825 0,1.15621 -0.1283,0.31795 -0.23327,0.0578 -0.23327,-0.57811 z M 4.0435193,91.653473 c 0,-0.635917 0.1049716,-0.896065 0.2332708,-0.578106 0.1282988,0.317958 0.1282988,0.838253 0,1.156211 -0.1282992,0.317959 -0.2332708,0.05781 -0.2332708,-0.578105 z M 201.48798,91.383691 c 0.0222,-0.538771 0.13178,-0.648357 0.27941,-0.279419 0.1336,0.333854 0.11718,0.732747 -0.0365,0.88643 -0.15367,0.15368 -0.26298,-0.119478 -0.2429,-0.607011 z"
         id="path2004" />
      <path
         style="fill:#494949;fill-opacity:1;stroke-width:0.462485"
         d="m 45.016013,247.667 c 0.317959,-0.1283 0.838254,-0.1283 1.156212,0 0.317958,0.12829 0.05781,0.23327 -0.578106,0.23327 -0.635916,0 -0.896064,-0.10498 -0.578106,-0.23327 z m 114.696207,0 c 0.31796,-0.1283 0.83826,-0.1283 1.15621,0 0.31796,0.12829 0.0578,0.23327 -0.5781,0.23327 -0.63592,0 -0.89607,-0.10498 -0.57811,-0.23327 z M 41.653076,137.6707 c -2.9e-5,-22.38426 0.0564,-31.60915 0.125392,-20.49975 0.069,11.10939 0.06902,29.42379 5.3e-5,40.69865 -0.06897,11.27486 -0.125416,2.18536 -0.125445,-20.1989 z M 148.03448,106.91547 c 0.4604,-0.50874 0.94115,-0.92497 1.06833,-0.92497 0.12719,0 -0.14544,0.41623 -0.60584,0.92497 -0.4604,0.50873 -0.94115,0.92497 -1.06833,0.92497 -0.12719,0 0.14544,-0.41624 0.60584,-0.92497 z M 45.016013,50.186042 c 0.317959,-0.128299 0.838254,-0.128299 1.156212,0 0.317958,0.128299 0.05781,0.233271 -0.578106,0.233271 -0.635916,0 -0.896064,-0.104972 -0.578106,-0.233271 z m 114.696207,0 c 0.31796,-0.128299 0.83826,-0.128299 1.15621,0 0.31796,0.128299 0.0578,0.233271 -0.5781,0.233271 -0.63592,0 -0.89607,-0.104972 -0.57811,-0.233271 z"
         id="path2002" />
      <path
         style="fill:#333333;fill-opacity:1;stroke-width:0.709809"
         d="M 31.841643,215.26652 C 17.915117,206.06618 14.324807,202.11469 11.734632,193.1368 c -1.004003,-3.48 -1.110916,-11.0894 -0.950044,-67.61744 l 0.181278,-63.696149 9.45396,6.020733 c 5.19968,3.311407 10.759381,7.054638 12.354888,8.318308 3.83782,3.039615 8.073446,9.713676 9.811433,15.45983 1.360554,4.498293 1.398564,6.622033 1.217648,68.033468 l -0.186743,63.39022 z m 132.953547,-58.06389 0.19906,-64.486363 1.70805,-4.258853 c 2.45878,-6.130721 4.39247,-8.913278 9.06455,-13.043716 3.83303,-3.388684 21.16956,-14.993707 22.39881,-14.993707 0.29946,0 0.54449,28.201014 0.54449,62.668899 0,67.78834 0.0652,66.52888 -3.83497,74.15858 -0.94454,1.84782 -2.90259,4.73353 -4.35118,6.41271 -2.22993,2.58483 -13.21273,10.33622 -23.24447,16.40536 l -2.68338,1.62342 z M 85.140841,184.46347 C 73.701725,177.18563 68.452955,172.47962 65.686996,167.02125 61.864081,159.4771 61.717165,157.86345 61.717165,123.41884 V 91.601609 l 1.597068,0.83599 c 5.422248,2.838299 21.915511,14.361641 24.198766,16.906951 3.590523,4.00262 6.564217,10.42469 7.533471,16.26949 0.509197,3.07052 0.713737,15.3327 0.584827,35.05983 l -0.19825,30.33776 z m 28.537369,-29.37315 0.20984,-33.98171 2.62571,-5.49877 c 3.48292,-7.29389 7.19184,-10.84184 19.73326,-18.876815 l 10.2922,-6.593992 0.18473,32.491027 c 0.1596,28.07513 0.0301,33.02265 -0.95246,36.40275 -2.73825,9.41922 -6.65806,13.8373 -20.04087,22.58842 -5.58884,3.65458 -10.63417,6.82605 -11.21188,7.04774 -0.92006,0.35306 -1.02433,-3.81275 -0.84053,-33.57865 z"
         id="path2000"
         sodipodi:nodetypes="ssscsssscsccsssssssccssscsssscsscsscscsss" />
    </g>
  </g>
</svg>
